{"title":"Natalee.Holloway.2009.dvdrip.xvid-dvsky","uid":5142124,"size":747708045,"categoryP":"video","categoryS":"movies","magnet":"?xt=urn:btih:6dbcf1adc145122e5a500a01ac10a4abce892f6a&amp;dn=Natalee.Holloway.2009.dvdrip.xvid-dvsky&amp;tr=udp%3A%2F%2Ftracker.openbittorrent.com%3A80&amp;tr=udp%3A%2F%2Fopen.demonii.com%3A1337&amp;tr=udp%3A%2F%2Ftracker.coppersurfer.tk%3A6969&amp;tr=udp%3A%2F%2Fexodus.desync.com%3A6969","seeders":1,"leechers":0,"uploader":"headdock","files":7,"time":1257006549,"description":"General\nComplete name                    : Natalee.Holloway.2009.dvdrip.xvid-dvsky\nFormat                           : AVI\nFormat/Info                      : Audio Video Interleave\nFile size                        : 702 MiB\nDuration                         : 1h 27mn\nOverall bit rate                 : 1 126 Kbps\nWriting application              : VirtualDubMod 1.5.10.2 (build 2542/release)\nWriting library                  : VirtualDubMod build 2542/release\n\nVideo\nFormat                           : MPEG-4 Visual\nFormat profile                   : Streaming Video@L1\nFormat settings, BVOP            : Yes\nFormat settings, QPel            : No\nFormat settings, GMC             : No warppoints\nFormat settings, Matrix          : Default\nCodec ID                         : XVID\nCodec ID/Hint                    : XviD\nDuration                         : 1h 27mn\nBit rate                         : 986 Kbps\nWidth                            : 624 pixels\nHeight                           : 352 pixels\nDisplay aspect ratio             : 16/9\nFrame rate                       : 23.976 fps\nResolution                       : 24 bits\nColorimetry                      : 4:2:0\nScan type                        : Progressive\nBits/(Pixel*Frame)               : 0.187\nStream size                      : 615 MiB (88%)\nWriting library                  : XviD 1.2.1 (UTC 2008-12-04)\n\nAudio\nFormat                           : MPEG Audio\nFormat version                   : Version 1\nFormat profile                   : Layer 3\nCodec ID                         : 55\nCodec ID/Hint                    : MP3\nDuration                         : 1h 27mn\nBit rate mode                    : Variable\nBit rate                         : 127 Kbps\nMinimum bit rate                 : 135 Kbps\nChannel(s)                       : 2 channels\nSampling rate                    : 48.0 KHz\nResolution                       : 16 bits\nStream size                      : 79.4 MiB (11%)\nAlignment                        : Aligned on interleaves\nInterleave, duration             : 24 ms (0.58 video frame)\nInterleave, preload duration     : 144 ms\nWriting library                  : LAME3.98r\nEncoding settings                : ABR\n\n\n\n\nTracy Pollan          ... Beth Twitty\n\nGrant Show            ... Jug Twitty\n\nCatherine Dent        ... Carol\n\nAmy Gumenick          ... Natalee Holloway\n\nSean Cameron Michael  ... Paul van der Sloot\n\nJacques Strydom       ... Joran Van Der Sloot\n\n\n\n\nPlot: N/A","torrent":{"xt":"urn:btih:6dbcf1adc145122e5a500a01ac10a4abce892f6a","amp;dn":"Natalee.Holloway.2009.dvdrip.xvid-dvsky","amp;tr":["udp%3A%2F%2Ftracker.openbittorrent.com%3A80","udp%3A%2F%2Fopen.demonii.com%3A1337","udp%3A%2F%2Ftracker.coppersurfer.tk%3A6969","udp%3A%2F%2Fexodus.desync.com%3A6969"],"infoHash":"6dbcf1adc145122e5a500a01ac10a4abce892f6a","infoHashBuffer":{"type":"Buffer","data":[109,188,241,173,193,69,18,46,90,80,10,1,172,16,164,171,206,137,47,106]},"announce":[],"urlList":[]}}